<?xml version="1.0" encoding="UTF-8"?><svg id="Ebene_1" xmlns="http://www.w3.org/2000/svg" viewBox="0 0 1920 806.62"><defs><style>.cls-1,.cls-2,.cls-3{stroke-width:0px;}.cls-2{fill:#fff;}.cls-3{fill:#e60077;}</style></defs><rect class="cls-3" x="739.61" y="439.4" width="1180.39" height="219.33"/><rect class="cls-3" x="386.28" y="58.29" width="86.58" height="690.03"/><polygon class="cls-1" points="386.28 0 386.28 806.62 .48 705.26 0 127 386.28 0"/><ellipse class="cls-2" cx="303.69" cy="418.78" rx="25.1" ry="29.56"/><path class="cls-1" d="m805.04,409.68v-129.74h83.22v23.17h-57.83v31.14h48.19v23.17h-48.19v52.26h-25.39Z"/><path class="cls-1" d="m968.52,411.91c-13.1,0-24.68-2.88-34.75-8.62-10.07-5.74-17.95-13.65-23.63-23.72-5.68-10.07-8.53-21.66-8.53-34.75s2.84-24.68,8.53-34.75c5.68-10.07,13.49-17.95,23.45-23.63,9.94-5.68,21.4-8.53,34.38-8.53s24.46,2.87,34.47,8.62,17.86,13.66,23.54,23.72c5.68,10.07,8.53,21.66,8.53,34.75s-2.81,24.5-8.43,34.57c-5.62,10.07-13.38,17.98-23.26,23.72-9.89,5.75-21.31,8.62-34.29,8.62Zm0-23.17c7.78,0,14.71-1.88,20.76-5.66,6.05-3.76,10.78-8.96,14.18-15.57,3.39-6.61,5.1-14.18,5.1-22.71s-1.74-16.06-5.19-22.62c-3.46-6.54-8.22-11.7-14.27-15.48-6.05-3.76-13.1-5.65-21.12-5.65s-14.74,1.88-20.85,5.65c-6.12,3.77-10.91,8.93-14.37,15.48-3.46,6.55-5.19,14.15-5.19,22.8s1.73,16.07,5.19,22.62c3.47,6.55,8.28,11.71,14.46,15.48,6.17,3.77,13.28,5.66,21.31,5.66Z"/><path class="cls-1" d="m1100.11,411.91c-6.55,0-12.66-.81-18.34-2.41-5.68-1.61-10.75-3.86-15.2-6.77-4.44-2.91-8.13-6.15-11.02-9.73-2.91-3.58-4.79-7.35-5.66-11.3l24.84-7.42c1.6,4.21,4.44,7.82,8.53,10.84,4.07,3.03,9.2,4.61,15.38,4.73,6.55.12,11.89-1.3,16.04-4.26,4.14-2.97,6.21-6.8,6.21-11.49,0-4.08-1.64-7.51-4.91-10.29-3.28-2.78-7.76-4.91-13.43-6.39l-16.87-4.45c-6.3-1.6-11.86-4.05-16.68-7.32-4.82-3.27-8.59-7.32-11.31-12.14-2.72-4.82-4.07-10.44-4.07-16.87,0-12.24,4.05-21.77,12.14-28.63,8.09-6.86,19.56-10.29,34.38-10.29,8.28,0,15.54,1.2,21.78,3.62,6.24,2.41,11.46,5.84,15.66,10.28,4.2,4.45,7.41,9.7,9.64,15.76l-24.65,7.6c-1.48-4.2-4.2-7.78-8.15-10.75-3.95-2.97-8.96-4.45-15.01-4.45s-11.02,1.42-14.54,4.26c-3.52,2.85-5.29,6.86-5.29,12.05,0,4.07,1.39,7.29,4.17,9.64,2.78,2.34,6.58,4.14,11.39,5.37l17.05,4.27c11.12,2.72,19.77,7.59,25.96,14.63,6.17,7.05,9.27,14.9,9.27,23.54,0,7.67-1.86,14.37-5.57,20.11-3.7,5.75-9.08,10.23-16.12,13.44-7.05,3.21-15.58,4.82-25.58,4.82Z"/><path class="cls-1" d="m1214.1,411.91c-6.55,0-12.66-.81-18.34-2.41-5.68-1.61-10.75-3.86-15.2-6.77-4.44-2.91-8.13-6.15-11.02-9.73-2.91-3.58-4.79-7.35-5.66-11.3l24.84-7.42c1.6,4.21,4.44,7.82,8.53,10.84,4.07,3.03,9.2,4.61,15.38,4.73,6.55.12,11.89-1.3,16.04-4.26,4.14-2.97,6.21-6.8,6.21-11.49,0-4.08-1.64-7.51-4.91-10.29s-7.76-4.91-13.43-6.39l-16.87-4.45c-6.3-1.6-11.86-4.05-16.68-7.32-4.82-3.27-8.59-7.32-11.31-12.14-2.72-4.82-4.07-10.44-4.07-16.87,0-12.24,4.05-21.77,12.14-28.63,8.09-6.86,19.56-10.29,34.38-10.29,8.28,0,15.54,1.2,21.78,3.62,6.24,2.41,11.46,5.84,15.66,10.28,4.2,4.45,7.41,9.7,9.64,15.76l-24.65,7.6c-1.48-4.2-4.2-7.78-8.15-10.75s-8.96-4.45-15.01-4.45-11.02,1.42-14.54,4.26c-3.52,2.85-5.29,6.86-5.29,12.05,0,4.07,1.39,7.29,4.17,9.64,2.78,2.34,6.58,4.14,11.39,5.37l17.05,4.27c11.12,2.72,19.77,7.59,25.96,14.63,6.17,7.05,9.27,14.9,9.27,23.54,0,7.67-1.86,14.37-5.57,20.11-3.7,5.75-9.08,10.23-16.12,13.44-7.05,3.21-15.58,4.82-25.58,4.82Z"/><path class="cls-2" d="m805.04,613.93v-129.74h43.93c8.9,0,16.68,1.36,23.36,4.08,6.67,2.72,11.86,6.82,15.57,12.32,3.71,5.5,5.56,12.33,5.56,20.49,0,5.07-1.27,9.73-3.79,13.99-2.53,4.26-6.09,7.94-10.66,11.02,6.05,3.1,10.72,7.2,13.99,12.33,3.28,5.13,4.91,11.28,4.91,18.44,0,7.91-1.79,14.64-5.38,20.2-3.58,5.57-8.59,9.77-15.01,12.61s-13.96,4.26-22.61,4.26h-49.87Zm24.84-76.92h19.65c5.56,0,9.95-1.42,13.16-4.26s4.81-6.86,4.81-12.05-1.79-9.2-5.38-12.05c-3.58-2.84-8.46-4.26-14.64-4.26h-17.6v32.63Zm0,54.49h22.61c6.05,0,10.81-1.51,14.27-4.54,3.46-3.02,5.19-7.07,5.19-12.14s-1.92-9.48-5.75-12.52c-3.83-3.02-9.09-4.53-15.76-4.53h-20.57v33.73Z"/><path class="cls-2" d="m905.88,613.93l51.15-129.74h25.39l-49.68,129.74h-26.87Zm24.09-28.54v-22.43h81.37v22.43h-81.37Zm78.4,28.54l-49.67-129.74h25.39l51.16,129.74h-26.88Z"/><path class="cls-2" d="m1103.28,616.16c-12.61,0-23.79-2.88-33.55-8.62-9.77-5.74-17.42-13.65-22.99-23.72-5.56-10.07-8.34-21.66-8.34-34.75s2.78-24.68,8.34-34.75c5.57-10.07,13.2-17.98,22.9-23.72,9.69-5.75,20.85-8.62,33.45-8.62,8.9,0,17.18,1.57,24.84,4.72,7.66,3.16,14.36,7.54,20.11,13.17,5.75,5.62,10.16,12.07,13.25,19.37l-23.54,8.71c-2.1-4.57-4.88-8.55-8.34-11.96-3.46-3.39-7.41-6.05-11.86-7.96-4.45-1.92-9.27-2.88-14.46-2.88-7.54,0-14.24,1.89-20.11,5.66-5.86,3.77-10.44,8.92-13.71,15.48-3.28,6.55-4.91,14.15-4.91,22.8s1.67,16.28,5,22.89c3.34,6.62,7.97,11.8,13.9,15.58,5.93,3.76,12.72,5.65,20.39,5.65,5.31,0,10.16-1.01,14.54-3.06,4.39-2.04,8.28-4.84,11.68-8.43,3.39-3.57,6.15-7.72,8.24-12.42l23.54,8.53c-3.09,7.54-7.5,14.22-13.25,20.02-5.75,5.81-12.45,10.32-20.11,13.53-7.67,3.21-16.01,4.82-25.02,4.82Z"/><path class="cls-2" d="m1180.38,613.93v-129.74h25.02v129.74h-25.02Zm15.2-32.81l-2.97-31.88,60.8-65.05h32.81l-90.64,96.94Zm61.35,32.81l-51.71-65.98,18.34-15.2,64.69,81.18h-31.32Z"/><path class="cls-2" d="m1343.66,616.16c-6.55,0-12.66-.81-18.34-2.41-5.68-1.61-10.75-3.86-15.2-6.77-4.44-2.91-8.13-6.15-11.02-9.73-2.91-3.58-4.79-7.35-5.66-11.3l24.84-7.42c1.6,4.21,4.44,7.82,8.53,10.84,4.07,3.03,9.2,4.61,15.38,4.73,6.55.12,11.89-1.3,16.04-4.26,4.14-2.97,6.21-6.8,6.21-11.49,0-4.08-1.64-7.51-4.91-10.29s-7.76-4.91-13.43-6.39l-16.87-4.45c-6.3-1.6-11.86-4.05-16.68-7.32-4.82-3.27-8.59-7.32-11.31-12.14-2.72-4.82-4.07-10.44-4.07-16.87,0-12.24,4.05-21.77,12.14-28.63,8.09-6.86,19.56-10.29,34.38-10.29,8.28,0,15.54,1.2,21.78,3.62,6.24,2.41,11.46,5.84,15.66,10.28,4.2,4.45,7.41,9.7,9.64,15.76l-24.65,7.6c-1.48-4.2-4.2-7.78-8.15-10.75-3.95-2.97-8.96-4.45-15.01-4.45s-11.02,1.42-14.54,4.26c-3.52,2.85-5.29,6.86-5.29,12.05,0,4.07,1.39,7.29,4.17,9.64,2.78,2.34,6.58,4.14,11.39,5.37l17.05,4.27c11.12,2.72,19.77,7.59,25.96,14.63,6.17,7.05,9.27,14.9,9.27,23.54,0,7.67-1.86,14.37-5.57,20.11-3.7,5.75-9.08,10.23-16.12,13.44-7.05,3.21-15.58,4.82-25.58,4.82Z"/><path class="cls-2" d="m1440.03,613.93v-106.57h-38.92v-23.17h103.04v23.17h-38.73v106.57h-25.39Z"/><path class="cls-2" d="m1488.96,613.93l51.15-129.74h25.39l-49.67,129.74h-26.88Zm24.09-28.54v-22.43h81.38v22.43h-81.38Zm78.41,28.54l-49.67-129.74h25.38l51.17,129.74h-26.88Z"/><path class="cls-2" d="m1687.08,616.16c-13.21,0-24.92-2.88-35.11-8.62-10.19-5.74-18.19-13.65-24-23.72-5.81-10.07-8.71-21.66-8.71-34.75s2.9-24.68,8.71-34.75c5.81-10.07,13.81-17.98,24-23.72,10.19-5.75,21.9-8.62,35.11-8.62,7.91,0,15.2,1.18,21.88,3.52,6.66,2.35,12.56,5.59,17.7,9.74,5.12,4.14,9.41,8.86,12.87,14.17l-20.74,12.98c-2.12-3.34-4.85-6.3-8.25-8.9s-7.13-4.63-11.22-6.12c-4.07-1.48-8.15-2.23-12.24-2.23-8.15,0-15.37,1.89-21.68,5.66-6.3,3.77-11.24,8.92-14.82,15.48s-5.38,14.15-5.38,22.8,1.77,16.13,5.29,22.8c3.53,6.67,8.49,11.89,14.91,15.67,6.43,3.76,13.85,5.65,22.25,5.65,6.55,0,12.4-1.29,17.52-3.89,5.12-2.6,9.18-6.24,12.15-10.93,2.95-4.7,4.43-10.14,4.43-16.31l24.11-3.71c0,12.24-2.52,22.68-7.51,31.32-5.01,8.65-11.93,15.23-20.76,19.74-8.83,4.52-19.01,6.77-30.5,6.77Zm4.27-51.9v-19.83h54.5v15.76l-13.72,4.07h-40.78Z"/><path class="cls-2" d="m1764.57,613.93v-129.74h82.1v23.17h-56.71v29.47h48.92v22.62h-48.92v31.32h57.45v23.17h-82.84Z"/></svg>