<?xml version="1.0" encoding="UTF-8"?><svg id="Ebene_1" xmlns="http://www.w3.org/2000/svg" viewBox="0 0 1927.66 815.44"><defs><style>.cls-1{fill:#fff;stroke-width:0px;}</style></defs><path class="cls-1" d="m956.77,511.58l-18.15,47.4h36.29l-18.14-47.4Zm0,0l-18.15,47.4h36.29l-18.14-47.4Zm0,0l-18.15,47.4h36.29l-18.14-47.4Zm237.81,32.51l.19.24v-.4l-.19.16Zm0,0l.19.24v-.4l-.19.16Zm-237.81-32.51l-18.15,47.4h36.29l-18.14-47.4Zm0,0l-18.15,47.4h36.29l-18.14-47.4Zm237.81,32.51l.19.24v-.4l-.19.16Zm364.26-32.5l-18.14,47.39h36.29l-18.15-47.39Zm0,0l-18.14,47.39h36.29l-18.15-47.39Zm-364.26,32.5l.19.24v-.4l-.19.16Zm-237.81-32.51l-18.15,47.4h36.29l-18.14-47.4Zm0,0l-18.15,47.4h36.29l-18.14-47.4Zm237.81,32.51l.19.24v-.4l-.19.16Zm364.26-32.5l-18.14,47.39h36.29l-18.15-47.39Zm0,0l-18.14,47.39h36.29l-18.15-47.39Zm-364.26,32.5l.19.24v-.4l-.19.16Zm-237.81-32.51l-18.15,47.4h36.29l-18.14-47.4Zm0,0l-18.15,47.4h36.29l-18.14-47.4Zm237.81,32.51l.19.24v-.4l-.19.16Zm364.26-32.5l-18.14,47.39h36.29l-18.15-47.39Zm0,0l-18.14,47.39h36.29l-18.15-47.39Zm-364.26,32.5l.19.24v-.4l-.19.16Zm-237.81-32.51l-18.15,47.4h36.29l-18.14-47.4Zm0,0l-18.15,47.4h36.29l-18.14-47.4Zm237.81,32.51l.19.24v-.4l-.19.16Zm364.26-32.5l-18.14,47.39h36.29l-18.15-47.39Zm0,0l-18.14,47.39h36.29l-18.15-47.39Zm-364.26,32.5l.19.24v-.4l-.19.16Zm-237.81-32.51l-18.15,47.4h36.29l-18.14-47.4Zm-239.06-73.6v214.42h1209.95v-214.42H717.71Zm159.12,154.81c-3.56,5.52-8.52,9.68-14.89,12.5-6.38,2.82-13.85,4.23-22.42,4.23h-49.44v-128.66h43.55c8.82,0,16.54,1.35,23.16,4.04,6.62,2.7,11.76,6.78,15.44,12.23,3.68,5.45,5.52,12.22,5.52,20.3,0,5.03-1.27,9.66-3.77,13.88-2.52,4.23-6.04,7.88-10.57,10.94,6,3.06,10.63,7.14,13.87,12.22,3.25,5.09,4.87,11.18,4.87,18.29,0,7.84-1.77,14.52-5.32,20.03Zm117.43,16.73l-10.84-28.31h-53.31l-10.84,28.31h-26.64l50.72-128.66h26.84l50.72,128.66h-26.65Zm141.42-15.99c-5.69,5.76-12.34,10.23-19.93,13.41-7.61,3.19-15.87,4.78-24.82,4.78-12.49,0-23.58-2.85-33.26-8.55-9.69-5.69-17.28-13.53-22.8-23.52-5.51-9.99-8.27-21.47-8.27-34.46s2.76-24.47,8.27-34.46c5.52-9.99,13.08-17.83,22.7-23.52,9.62-5.7,20.68-8.55,33.18-8.55,8.82,0,17.02,1.56,24.62,4.69,7.6,3.12,14.25,7.47,19.95,13.04,5.7,5.58,10.07,11.98,13.14,19.21l-23.34,8.64c-2.09-4.53-4.85-8.49-8.27-11.85-3.44-3.38-7.36-6.01-11.77-7.91s-9.19-2.85-14.33-2.85c-7.47,0-14.12,1.87-19.94,5.6-5.83,3.74-10.36,8.86-13.6,15.36-3.25,6.49-4.87,14.03-4.87,22.6s1.65,16.14,4.96,22.7c3.31,6.55,7.9,11.7,13.79,15.44,5.87,3.74,12.61,5.6,20.21,5.6,5.26,0,10.07-1.01,14.43-3.03,4.35-2.02,8.21-4.81,11.57-8.36,3.37-3.55,6.1-7.66,8.18-12.32l23.34,8.46c-3.06,7.47-7.44,14.09-13.14,19.85Zm110.18,15.99l-41.61-53.09-9.48,10.13v42.96h-24.81v-128.66h24.81v50.94l47.6-50.94h32.53l-54.26,58.03,56.28,70.63h-31.06Zm133.61-15.9c-3.68,5.7-9,10.14-15.99,13.32-6.98,3.19-15.44,4.78-25.36,4.78-6.49,0-12.56-.8-18.2-2.39-5.64-1.59-10.65-3.82-15.07-6.71-4.41-2.87-8.06-6.09-10.93-9.65-2.89-3.55-4.76-7.28-5.61-11.21l24.63-7.35c1.59,4.17,4.41,7.75,8.46,10.76,4.03,2.99,9.12,4.56,15.25,4.68,6.49.12,11.79-1.29,15.89-4.23,4.11-2.94,6.17-6.74,6.17-11.39,0-4.04-1.63-7.45-4.88-10.21-3.25-2.75-7.69-4.86-13.32-6.33l-16.73-4.41c-6.24-1.59-11.76-4.02-16.54-7.26-4.78-3.25-8.52-7.27-11.21-12.04-2.69-4.78-4.04-10.35-4.04-16.73,0-12.13,4.01-21.59,12.03-28.39,8.03-6.8,19.39-10.2,34.1-10.2,8.21,0,15.4,1.19,21.6,3.58,6.18,2.39,11.35,5.79,15.52,10.2,4.17,4.41,7.36,9.62,9.56,15.62l-24.44,7.54c-1.47-4.16-4.17-7.72-8.09-10.66s-8.89-4.41-14.89-4.41-10.93,1.41-14.42,4.23c-3.49,2.82-5.24,6.8-5.24,11.94,0,4.05,1.38,7.23,4.13,9.56,2.76,2.32,6.53,4.1,11.31,5.33l16.91,4.23c11.02,2.7,19.6,7.53,25.72,14.52,6.13,6.98,9.19,14.76,9.19,23.34,0,7.6-1.83,14.24-5.51,19.94Zm81.96,15.9h-25.16v-105.68h-38.61v-22.98h102.18v22.98h-38.41v105.68Zm134.91,0l-10.84-28.31h-53.31l-10.84,28.31h-26.66l50.74-128.66h26.83l50.72,128.66h-26.64Zm155.67-55.14c0,.62-.01,1.24-.02,1.85-.24,11.34-2.72,21.08-7.43,29.21-4.96,8.58-11.83,15.1-20.58,19.57-8.76,4.48-18.84,6.71-30.24,6.71-13.1,0-24.71-2.85-34.82-8.55-10.11-5.69-18.04-13.53-23.8-23.52-5.77-9.99-8.64-21.47-8.64-34.46s2.87-24.47,8.64-34.46c5.76-9.99,13.69-17.83,23.8-23.52,10.11-5.7,21.72-8.55,34.82-8.55,7.85,0,15.08,1.16,21.69,3.49,6.62,2.33,12.47,5.54,17.56,9.65,5.08,4.1,9.34,8.79,12.77,14.06l-20.58,12.86c-2.1-3.31-4.82-6.24-8.18-8.82-3.37-2.57-7.08-4.6-11.13-6.06-4.04-1.48-8.08-2.21-12.13-2.21-8.08,0-15.24,1.87-21.49,5.6-6.26,3.74-11.16,8.86-14.71,15.36-3.56,6.49-5.34,14.03-5.34,22.6s1.75,15.99,5.25,22.6c3.49,6.62,8.42,11.8,14.8,15.54,6.37,3.74,13.71,5.6,22.04,5.6,6.49,0,12.3-1.29,17.38-3.86,5.07-2.57,9.1-6.19,12.03-10.84,2.58-4.09,4.03-8.75,4.34-13.97h-30.07v-19.67h54.04v13.79Zm103.29,55.14h-82.15v-128.66h81.41v22.98h-56.24v29.22h48.52v22.42h-48.52v31.06h56.98v22.98Zm-314.6-50.54h36.29l-18.15-47.39-18.14,47.39Zm-345.93-14.65v-.4l-.19.16.19.24Zm-256.15,14.65h36.29l-18.14-47.4-18.15,47.4Zm18.15-47.4l-18.15,47.4h36.29l-18.14-47.4Zm237.81,32.51l.19.24v-.4l-.19.16Zm364.26-32.5l-18.14,47.39h36.29l-18.15-47.39Zm0,0l-18.14,47.39h36.29l-18.15-47.39Zm-364.26,32.5l.19.24v-.4l-.19.16Zm-237.81-32.51l-18.15,47.4h36.29l-18.14-47.4Zm0,0l-18.15,47.4h36.29l-18.14-47.4Zm237.81,32.51l.19.24v-.4l-.19.16Zm364.26-32.5l-18.14,47.39h36.29l-18.15-47.39Zm0,0l-18.14,47.39h36.29l-18.15-47.39Zm-364.26,32.5l.19.24v-.4l-.19.16Zm-237.81-32.51l-18.15,47.4h36.29l-18.14-47.4Zm0,0l-18.15,47.4h36.29l-18.14-47.4Zm237.81,32.51l.19.24v-.4l-.19.16Zm364.26-32.5l-18.14,47.39h36.29l-18.15-47.39Zm0,0l-18.14,47.39h36.29l-18.15-47.39Zm-364.26,32.5l.19.24v-.4l-.19.16Zm-237.81-32.51l-18.15,47.4h36.29l-18.14-47.4Zm0,0l-18.15,47.4h36.29l-18.14-47.4Zm237.81,32.51l.19.24v-.4l-.19.16Zm0,0l.19.24v-.4l-.19.16Zm-237.81-32.51l-18.15,47.4h36.29l-18.14-47.4Zm0,0l-18.15,47.4h36.29l-18.14-47.4Zm237.81,32.51l.19.24v-.4l-.19.16Zm0,0l.19.24v-.4l-.19.16Zm-237.81-32.51l-18.15,47.4h36.29l-18.14-47.4Zm0,0l-18.15,47.4h36.29l-18.14-47.4Zm0,0l-18.15,47.4h36.29l-18.14-47.4Z"/><path class="cls-1" d="m385.56,71.09V0L0,130.4l.47,581.08,385.09,103.96v-64.49h75.34V71.09h-75.34Zm-15.32,724.35L15.77,699.74l-.44-558.36L370.24,21.35v774.09Z"/><path class="cls-1" d="m786.51,408.87v-128.65h82.52v22.97h-57.34v30.88h47.78v22.97h-47.78v51.83h-25.18Z"/><path class="cls-1" d="m949.72,411.07c-12.99,0-24.48-2.85-34.46-8.55-9.98-5.7-17.8-13.54-23.43-23.53-5.64-9.98-8.46-21.47-8.46-34.46s2.82-24.47,8.46-34.46c5.63-9.98,13.38-17.79,23.25-23.43,9.86-5.63,21.22-8.46,34.09-8.46s24.26,2.85,34.19,8.55c9.92,5.7,17.7,13.54,23.34,23.53,5.63,9.99,8.45,21.48,8.45,34.46s-2.79,24.29-8.36,34.27c-5.58,9.99-13.27,17.83-23.06,23.53-9.8,5.7-21.14,8.55-34,8.55Zm0-22.97c7.72,0,14.58-1.87,20.59-5.61,6-3.73,10.69-8.88,14.06-15.44,3.37-6.55,5.06-14.06,5.06-22.52s-1.72-15.92-5.15-22.42c-3.43-6.49-8.14-11.61-14.15-15.35-6.01-3.74-12.99-5.61-20.95-5.61s-14.61,1.87-20.67,5.61c-6.07,3.74-10.82,8.85-14.25,15.35-3.43,6.5-5.15,14.03-5.15,22.61s1.71,15.93,5.15,22.42c3.43,6.5,8.2,11.61,14.34,15.35,6.12,3.74,13.17,5.61,21.13,5.61Z"/><path class="cls-1" d="m1081.31,411.07c-6.49,0-12.56-.8-18.2-2.39-5.64-1.59-10.66-3.82-15.07-6.71-4.41-2.87-8.06-6.09-10.93-9.65-2.89-3.55-4.76-7.28-5.61-11.21l24.63-7.35c1.59,4.17,4.41,7.75,8.46,10.75,4.04,3,9.12,4.56,15.26,4.68,6.49.13,11.79-1.29,15.89-4.23,4.11-2.94,6.16-6.74,6.16-11.4,0-4.04-1.63-7.44-4.88-10.2-3.25-2.75-7.69-4.87-13.32-6.33l-16.73-4.41c-6.24-1.59-11.76-4.02-16.54-7.26-4.78-3.25-8.52-7.26-11.21-12.04-2.69-4.78-4.04-10.35-4.04-16.72,0-12.13,4.01-21.6,12.03-28.4,8.02-6.8,19.39-10.2,34.09-10.2,8.21,0,15.41,1.2,21.6,3.58,6.18,2.39,11.36,5.79,15.53,10.2,4.17,4.41,7.36,9.62,9.56,15.62l-24.44,7.54c-1.47-4.17-4.17-7.73-8.09-10.66-3.92-2.94-8.88-4.41-14.88-4.41s-10.93,1.41-14.43,4.23c-3.49,2.82-5.24,6.8-5.24,11.94,0,4.05,1.38,7.23,4.14,9.56,2.76,2.33,6.53,4.11,11.31,5.33l16.91,4.23c11.02,2.7,19.6,7.54,25.73,14.52,6.12,6.98,9.19,14.76,9.19,23.34,0,7.6-1.84,14.24-5.51,19.94-3.68,5.7-9,10.14-15.99,13.33-6.98,3.19-15.44,4.78-25.37,4.78Z"/><path class="cls-1" d="m1195.44,411.07c-6.49,0-12.56-.8-18.2-2.39-5.64-1.59-10.66-3.82-15.07-6.71-4.41-2.87-8.06-6.09-10.93-9.65-2.89-3.55-4.76-7.28-5.61-11.21l24.63-7.35c1.59,4.17,4.41,7.75,8.46,10.75,4.04,3,9.12,4.56,15.26,4.68,6.49.13,11.79-1.29,15.89-4.23s6.16-6.74,6.16-11.4c0-4.04-1.63-7.44-4.88-10.2-3.25-2.75-7.69-4.87-13.32-6.33l-16.73-4.41c-6.24-1.59-11.76-4.02-16.54-7.26-4.78-3.25-8.52-7.26-11.21-12.04-2.69-4.78-4.04-10.35-4.04-16.72,0-12.13,4.01-21.6,12.03-28.4,8.02-6.8,19.39-10.2,34.09-10.2,8.21,0,15.41,1.2,21.6,3.58,6.18,2.39,11.36,5.79,15.53,10.2,4.17,4.41,7.36,9.62,9.56,15.62l-24.44,7.54c-1.47-4.17-4.17-7.73-8.09-10.66-3.92-2.94-8.88-4.41-14.88-4.41s-10.93,1.41-14.43,4.23c-3.49,2.82-5.24,6.8-5.24,11.94,0,4.05,1.38,7.23,4.14,9.56,2.76,2.33,6.53,4.11,11.31,5.33l16.91,4.23c11.02,2.7,19.6,7.54,25.73,14.52,6.12,6.98,9.19,14.76,9.19,23.34,0,7.6-1.84,14.24-5.51,19.94-3.68,5.7-9,10.14-15.99,13.33-6.98,3.19-15.44,4.78-25.37,4.78Z"/><path class="cls-1" d="m852.01,517.07c0,5.14-1.59,9.13-4.78,11.95-3.18,2.82-7.53,4.22-13.05,4.22h-19.48v-32.34h17.46c6.13,0,10.97,1.41,14.52,4.22,3.55,2.82,5.33,6.8,5.33,11.95Z"/><path class="cls-1" d="m856.42,570.73c0,5.03-1.72,9.04-5.14,12.04-3.43,3.01-8.15,4.51-14.16,4.51h-22.42v-33.46h20.4c6.62,0,11.83,1.51,15.63,4.51,3.79,3,5.69,7.14,5.69,12.4Z"/><path class="cls-1" d="m1194.58,544.09l.19.24v-.4l-.19.16Zm0,0l.19.24v-.4l-.19.16Zm0,0l.19.24v-.4l-.19.16Z"/><path class="cls-1" d="m1751.99,556.23h.02v-1.85c0,.62-.01,1.24-.02,1.85Z"/><ellipse class="cls-1" cx="294.74" cy="424.8" rx="24.73" ry="29.13"/></svg>